# xmcd
#
# Track frame offsets: 
#        150
#        22315
#        37065
#        55009
#        72356
#        88484
#        107804
#        126239
#        141872
#        158609
#        180987
#        199442
#        215706
#
# Disc length: 3154 seconds
#
# Revision: 0
# Processed by: cddbd v1.5.2PL0 Copyright (c) Steve Scherf et al.
# Submitted via: ExactAudioCopy v0.95b4
#
DISCID=ca0c500d
DTITLE=AARON PRITCHETT - THANKFUL
DYEAR=2008
DGENRE=COUNTRY
TTITLE0=HOW DO I GET THERE
TTITLE1=HELL BENT FOR BUFFALO
TTITLE2=UNRAVELING
TTITLE3=SEPTEMBER
TTITLE4=HARD TO MISS
TTITLE5=COME OVER
TTITLE6=NOTHING BUT US
TTITLE7=UNDENIABLE
TTITLE8=SIMPLE
TTITLE9=AFTER THE RAIN
TTITLE10=LETS GET ROWDY
TTITLE11=THANKFUL
TTITLE12=I WONDER
EXTD=
EXTT0=
EXTT1=
EXTT2=
EXTT3=
EXTT4=
EXTT5=
EXTT6=
EXTT7=
EXTT8=
EXTT9=
EXTT10=
EXTT11=
EXTT12=
PLAYORDER=
